<svg data-name="Layer 1" xmlns="http://www.w3.org/2000/svg" viewBox="0 0 980.44 252.66"><defs><radialGradient id="a" cx="201.61" cy="391.17" r="96.56" gradientUnits="userSpaceOnUse"><stop offset=".16" stop-color="#fdb82f"/><stop offset=".62" stop-color="#8abc83"/><stop offset="1" stop-color="#28bfca"/></radialGradient></defs><path d="M201.61 413.81a22.64 22.64 0 1122.64-22.64 22.66 22.66 0 01-22.64 22.64zm0-39.85a17.21 17.21 0 1017.21 17.21A17.23 17.23 0 00201.61 374zm0 58.33a41.12 41.12 0 1141.12-41.12 41.16 41.16 0 01-41.12 41.12zm0-76.81a35.69 35.69 0 1035.69 35.69 35.73 35.73 0 00-35.69-35.69zm0 95.29a59.6 59.6 0 1159.6-59.6 59.67 59.67 0 01-59.6 59.6zm0-113.77a54.17 54.17 0 1054.17 54.17A54.23 54.23 0 00201.61 337zm0 132.25a78.08 78.08 0 1178.08-78.08 78.17 78.17 0 01-78.08 78.08zm0-150.73a72.65 72.65 0 1072.65 72.65 72.73 72.73 0 00-72.65-72.65zm0 169.21a96.56 96.56 0 1196.56-96.56 96.67 96.67 0 01-96.56 96.56zm0-187.69a91.13 91.13 0 1091.12 91.13A91.22 91.22 0 00201.61 300z" transform="translate(-105.05 -294.61)" fill="url(#a)"/><path d="M152.57 132.51h-.1a9.24 9.24 0 00-9.23 9.24 9.24 9.24 0 00-9.23-9.24h-.06a9.24 9.24 0 00-9.23 9.24 9.24 9.24 0 00-9.24-9.24h-.09a9.24 9.24 0 00-9.23 9.24V97.92a9.24 9.24 0 00-9.24-9.24h-.09a9.24 9.24 0 00-9.23 9.24v66.09s-.25 3.63-2.88 1.18-14.22-15.91-29.59-11.69c0 0-6.94 2.49-6.35 9.21s8 9.55 8 9.55 13.2 3.6 20.65 19.71 4.95 17.4 10.17 24.79c0 0 7.5 7.9 8.55 14.13h53.77s6.45-14.67 9.61-23.58a42.28 42.28 0 002.31-13.53v-52a9.24 9.24 0 00-9.27-9.27zm42.98 77.66a4.87 4.87 0 011.21-3.38 4.18 4.18 0 013.24-1.35 3.33 3.33 0 012.36.81 6 6 0 011.42 2q3 6.47 7 9a17.23 17.23 0 009.85 2.43q6.6 0 9.91-3.17a11.18 11.18 0 003.58-7.63c.09-3.05-.47-5.44-1.69-7.15a13 13 0 00-5.33-4.18 52.09 52.09 0 00-8.77-3 68.2 68.2 0 01-9.71-3.24 20.63 20.63 0 01-7.69-5.67 17.22 17.22 0 01-3.92-9.44 14.9 14.9 0 011.22-8.23 21 21 0 014.92-6.68 25.5 25.5 0 017.63-4.72 23.85 23.85 0 019.17-1.82 23.13 23.13 0 019.38 1.75 20.38 20.38 0 015.87 3.58 14.8 14.8 0 012.43 2.76 9.79 9.79 0 011.28 3 5.89 5.89 0 010 2.77 3.94 3.94 0 01-1.35 2.09 4.33 4.33 0 01-2.77.81 5.36 5.36 0 01-2.43-.54 5.87 5.87 0 01-2.16-2.43 9.83 9.83 0 00-3.71-3.64 12.67 12.67 0 00-6.54-1.49 17.7 17.7 0 00-5.8 1.08 13 13 0 00-5.73 4.32 8.16 8.16 0 00-2 6.88 7.75 7.75 0 003.17 5 28.25 28.25 0 006.61 3.24q4.11 1.48 9.11 3.1a42 42 0 019.38 4.39 20.1 20.1 0 016.81 7 20.68 20.68 0 012.45 10.53 18.26 18.26 0 01-2 8.5 18.83 18.83 0 01-5.26 6.34 24 24 0 01-7.69 3.92 30.82 30.82 0 01-9.11 1.35 26.9 26.9 0 01-9.31-1.69 22 22 0 01-7.89-4.93 29.19 29.19 0 01-5-6.14 16.1 16.1 0 01-2-4.25 7.79 7.79 0 01-.14-1.88zm54.32-73.13a5.54 5.54 0 111.62 4 5.49 5.49 0 01-1.62-4zm.81 26a4.72 4.72 0 019.44 0v58a4.72 4.72 0 01-9.44 0zm20.27.04a4.72 4.72 0 019.44 0v1.31a23 23 0 018.84-7 27 27 0 0111.67-2.63 27.4 27.4 0 0114.37 3.84 32.81 32.81 0 0110.59 10.19 30.1 30.1 0 0111-10.19 30.6 30.6 0 0115-3.84 29 29 0 0111.74 2.42 31.44 31.44 0 019.65 6.55 30.27 30.27 0 016.48 9.71 27.08 27.08 0 012.11 11.95v35.7a4.73 4.73 0 01-9.45 0v-35.7a20.34 20.34 0 00-1.62-8.1 21.66 21.66 0 00-4.38-6.61 20.3 20.3 0 00-6.48-4.45 20.69 20.69 0 00-16 0 20.95 20.95 0 00-11 11.06 23 23 0 00-1.75 7.56v36.24a4.73 4.73 0 01-9.45 0v-35.7a26.58 26.58 0 00-2.09-8.3 21.53 21.53 0 00-4.45-6.61 20.35 20.35 0 00-6.41-4.32 19.86 19.86 0 00-7.83-1.55 18.21 18.21 0 00-7.89 1.76 22.19 22.19 0 00-6.54 4.65 21.78 21.78 0 00-4.46 6.68 17.68 17.68 0 00-1.62 6.75v36.64a4.72 4.72 0 01-9.44 0zm120.64 84.46v-55.59a36.24 36.24 0 012.9-14.44 37.28 37.28 0 0119.77-19.76 37.38 37.38 0 0128.87 0 37.21 37.21 0 0111.81 8 37.61 37.61 0 018 11.8 37.4 37.4 0 01.01 28.84 37.28 37.28 0 01-19.77 19.76 36.06 36.06 0 01-14.43 2.91 34.78 34.78 0 01-15.8-4.12q-8.1-4.11-11.87-8.84v31.85a4.73 4.73 0 01-9.45 0zm9.45-55.59a27.2 27.2 0 002.15 10.73 27.6 27.6 0 0014.76 14.77 27.71 27.71 0 0021.45 0 27.6 27.6 0 0014.78-14.77 27.71 27.71 0 000-21.45 27.66 27.66 0 00-14.78-14.78 27.71 27.71 0 00-21.45 0 27.66 27.66 0 00-14.78 14.78 27.15 27.15 0 00-2.13 10.72zm73.18-55.86a4.72 4.72 0 019.44 0v85a4.72 4.72 0 01-9.44 0zm45.29 111.86v-22.4a28.94 28.94 0 01-7-2.16 31.15 31.15 0 01-9.65-6.55 30.24 30.24 0 01-6.48-9.64 29.67 29.67 0 01-2.36-11.74v-32.38a4.73 4.73 0 019.45 0v32.38a21.92 21.92 0 001.75 8.1 20.12 20.12 0 004.45 6.54 21.74 21.74 0 006.55 4.38 19.83 19.83 0 008 1.62 20.33 20.33 0 008.09-1.62 21.54 21.54 0 006.61-4.38 20 20 0 004.45-6.54 20.34 20.34 0 001.62-8.1v-32.38a4.73 4.73 0 019.45 0v32.38a29.67 29.67 0 01-2.36 11.74 30.41 30.41 0 01-6.48 9.64 31.15 31.15 0 01-9.65 6.55 31.62 31.62 0 01-7 2.16v22.4a4.73 4.73 0 01-9.45 0z" fill="#28bfca"/><path d="M647.95 221.09v-4.31l-1.48 1.48a37.09 37.09 0 01-11.74 7.89 37.26 37.26 0 01-28.87 0 37.28 37.28 0 01-19.82-19.76 37.38 37.38 0 010-28.87 37.25 37.25 0 0119.77-19.77 37.38 37.38 0 0128.87 0 37.25 37.25 0 0119.77 19.77 36.15 36.15 0 012.9 14.43v29.14a4.73 4.73 0 01-9.45 0zm-55.32-29.14a27 27 0 002.16 10.73 27.6 27.6 0 0014.78 14.77 27.71 27.71 0 0021.45 0 27.72 27.72 0 0014.77-14.7 29.15 29.15 0 002.16-9.59v-1.21a27 27 0 00-2.16-10.72 27.6 27.6 0 00-14.84-14.78 27.71 27.71 0 00-21.45 0 27.66 27.66 0 00-14.78 14.78 27 27 0 00-2.14 10.72zm74.09 55.59v-55.59a36.15 36.15 0 012.9-14.43 37.25 37.25 0 0119.77-19.77 37.38 37.38 0 0128.87 0 37.25 37.25 0 0119.77 19.77 37.38 37.38 0 010 28.87 37.28 37.28 0 01-19.77 19.76 36 36 0 01-14.43 2.91 34.78 34.78 0 01-15.79-4.12q-8.1-4.11-11.87-8.84v31.85a4.73 4.73 0 01-9.45 0zm9.45-55.59a27 27 0 002.16 10.73 27.65 27.65 0 005.93 8.84 28 28 0 008.84 5.93 27.71 27.71 0 0021.45 0 27.6 27.6 0 0014.78-14.77 27.71 27.71 0 000-21.45 27.66 27.66 0 00-14.78-14.78 27.71 27.71 0 00-21.45 0 27.84 27.84 0 00-8.84 5.94 27.54 27.54 0 00-5.93 8.84 27 27 0 00-2.16 10.72zm72.13 55.59v-55.59a36 36 0 012.9-14.43 37.28 37.28 0 0119.75-19.77 37.4 37.4 0 0128.88 0 37.34 37.34 0 0119.77 19.77 37.38 37.38 0 010 28.87 37.37 37.37 0 01-19.77 19.76 36.07 36.07 0 01-14.44 2.91 34.71 34.71 0 01-15.78-4.12q-8.1-4.11-11.88-8.84v31.85a4.72 4.72 0 01-9.44 0zm9.44-55.59a27 27 0 002.21 10.73 27.6 27.6 0 0014.78 14.77 27.71 27.71 0 0021.45 0 27.53 27.53 0 0014.77-14.77 27.71 27.71 0 000-21.45 27.6 27.6 0 00-14.77-14.78 27.71 27.71 0 00-21.45 0 27.66 27.66 0 00-14.78 14.78 27 27 0 00-2.21 10.72zm138.81-2.83h-59c-.09 1-.14 1.93-.14 2.83a27 27 0 002.16 10.73 27.6 27.6 0 0014.78 14.77 27.71 27.71 0 0021.45 0 28 28 0 008.84-5.93 27.22 27.22 0 003-3.38 7.82 7.82 0 011.75-1.95 3.9 3.9 0 012.56-.88 4.85 4.85 0 014.73 4.72v.54q-.27 2.56-5.33 7.62a37.32 37.32 0 01-11.81 8 37.26 37.26 0 01-28.87 0 37.28 37.28 0 01-19.72-19.8 37.38 37.38 0 010-28.87 37.25 37.25 0 0119.77-19.77 37.38 37.38 0 0128.87 0 37.49 37.49 0 0111.81 8 36.53 36.53 0 017.89 11.81 38.89 38.89 0 011.89 5.66q.67 3.24-.74 4.59a5.36 5.36 0 01-3.89 1.31zm-11.87-16.73a27.84 27.84 0 00-8.84-5.94 27.71 27.71 0 00-21.45 0 27.92 27.92 0 00-14.1 13.22h49.52a29.75 29.75 0 00-5.13-7.28zm95.77-35.89v55.45a36.24 36.24 0 01-2.9 14.44 37.28 37.28 0 01-19.77 19.76 37.26 37.26 0 01-28.87 0 37.28 37.28 0 01-19.77-19.76 37.38 37.38 0 010-28.87 37.25 37.25 0 0119.81-19.77 36 36 0 0114.43-2.9 34.77 34.77 0 0115.79 4.11q8.1 4.13 11.87 8.84v-31.71a4.73 4.73 0 019.45 0zM971 191.95a27 27 0 00-2.16-10.72 27.6 27.6 0 00-14.77-14.78 27.71 27.71 0 00-21.45 0 27.66 27.66 0 00-14.78 14.78 27.71 27.71 0 000 21.45 27.6 27.6 0 0014.78 14.77 27.71 27.71 0 0021.45 0 27.53 27.53 0 0014.77-14.77 27 27 0 002.16-10.73z" fill="#fdb82f"/></svg>