<svg id="Layer_1" data-name="Layer 1" xmlns="http://www.w3.org/2000/svg" xmlns:xlink="http://www.w3.org/1999/xlink" viewBox="0 0 980.44 252.66"><defs><style>.cls-1{fill:url(#radial-gradient);}.cls-2{fill:#28bfca;}.cls-3{fill:#fdb82f;}</style><radialGradient id="radial-gradient" cx="201.61" cy="391.17" r="96.56" gradientUnits="userSpaceOnUse"><stop offset="0.16" stop-color="#fdb82f"/><stop offset="0.62" stop-color="#8abc83"/><stop offset="1" stop-color="#28bfca"/></radialGradient></defs><title>Simply Apped Logo</title><path class="cls-1" d="M201.61,413.81a22.64,22.64,0,1,1,22.64-22.64A22.66,22.66,0,0,1,201.61,413.81Zm0-39.85a17.21,17.21,0,1,0,17.21,17.21A17.23,17.23,0,0,0,201.61,374Zm0,58.33a41.12,41.12,0,1,1,41.12-41.12A41.16,41.16,0,0,1,201.61,432.29Zm0-76.81a35.69,35.69,0,1,0,35.69,35.69A35.73,35.73,0,0,0,201.61,355.48Zm0,95.29a59.6,59.6,0,1,1,59.6-59.6A59.67,59.67,0,0,1,201.61,450.77Zm0-113.77a54.17,54.17,0,1,0,54.17,54.17A54.23,54.23,0,0,0,201.61,337Zm0,132.25a78.08,78.08,0,1,1,78.08-78.08A78.17,78.17,0,0,1,201.61,469.25Zm0-150.73a72.65,72.65,0,1,0,72.65,72.65A72.73,72.73,0,0,0,201.61,318.52Zm0,169.21a96.56,96.56,0,1,1,96.56-96.56A96.67,96.67,0,0,1,201.61,487.73Zm0-187.69a91.13,91.13,0,1,0,91.12,91.13A91.22,91.22,0,0,0,201.61,300Z" transform="translate(-105.05 -294.61)"/><path class="cls-2" d="M257.62,427.12h-.1a9.24,9.24,0,0,0-9.23,9.24,9.24,9.24,0,0,0-9.23-9.24H239a9.24,9.24,0,0,0-9.23,9.24,9.24,9.24,0,0,0-9.24-9.24h-.09a9.24,9.24,0,0,0-9.23,9.24V392.53a9.24,9.24,0,0,0-9.24-9.24h-.09a9.24,9.24,0,0,0-9.23,9.24v66.09s-.25,3.63-2.88,1.18-14.22-15.91-29.59-11.69c0,0-6.94,2.49-6.35,9.21s8,9.55,8,9.55,13.2,3.6,20.65,19.71,4.95,17.4,10.17,24.79c0,0,7.5,7.9,8.55,14.13h53.77s6.45-14.67,9.61-23.58a42.28,42.28,0,0,0,2.31-13.53v-52A9.24,9.24,0,0,0,257.62,427.12Z" transform="translate(-105.05 -294.61)"/><path class="cls-2" d="M300.6,504.78a4.87,4.87,0,0,1,1.21-3.38,4.18,4.18,0,0,1,3.24-1.35,3.33,3.33,0,0,1,2.36.81,6,6,0,0,1,1.42,2q3,6.47,7,9a17.23,17.23,0,0,0,9.85,2.43q6.6,0,9.91-3.17a11.18,11.18,0,0,0,3.58-7.63c.09-3.05-.47-5.44-1.69-7.15a13,13,0,0,0-5.33-4.18,52.09,52.09,0,0,0-8.77-3,68.2,68.2,0,0,1-9.71-3.24,20.63,20.63,0,0,1-7.69-5.67,17.22,17.22,0,0,1-3.92-9.44,14.9,14.9,0,0,1,1.22-8.23,21,21,0,0,1,4.92-6.68,25.5,25.5,0,0,1,7.63-4.72,23.85,23.85,0,0,1,9.17-1.82,23.13,23.13,0,0,1,9.38,1.75,20.38,20.38,0,0,1,5.87,3.58,14.8,14.8,0,0,1,2.43,2.76,9.79,9.79,0,0,1,1.28,3,5.89,5.89,0,0,1,0,2.77,3.94,3.94,0,0,1-1.35,2.09,4.33,4.33,0,0,1-2.77.81,5.36,5.36,0,0,1-2.43-.54,5.87,5.87,0,0,1-2.16-2.43,9.83,9.83,0,0,0-3.71-3.64,12.67,12.67,0,0,0-6.54-1.49,17.7,17.7,0,0,0-5.8,1.08,13,13,0,0,0-5.73,4.32,8.16,8.16,0,0,0-2,6.88,7.75,7.75,0,0,0,3.17,5,28.25,28.25,0,0,0,6.61,3.24q4.11,1.48,9.11,3.1a42,42,0,0,1,9.38,4.39,20.1,20.1,0,0,1,6.81,7A20.68,20.68,0,0,1,349,503.56a18.26,18.26,0,0,1-2,8.5,18.83,18.83,0,0,1-5.26,6.34,24,24,0,0,1-7.69,3.92,30.82,30.82,0,0,1-9.11,1.35,26.9,26.9,0,0,1-9.31-1.69,22,22,0,0,1-7.89-4.93,29.19,29.19,0,0,1-5-6.14,16.1,16.1,0,0,1-2-4.25A7.79,7.79,0,0,1,300.6,504.78Z" transform="translate(-105.05 -294.61)"/><path class="cls-2" d="M354.92,431.65a5.54,5.54,0,1,1,1.62,4A5.49,5.49,0,0,1,354.92,431.65Zm.81,26a4.72,4.72,0,0,1,9.44,0v58a4.72,4.72,0,0,1-9.44,0Z" transform="translate(-105.05 -294.61)"/><path class="cls-2" d="M376,457.69a4.72,4.72,0,0,1,9.44,0V459a23,23,0,0,1,8.84-7,27,27,0,0,1,11.67-2.63,27.4,27.4,0,0,1,14.37,3.84,32.81,32.81,0,0,1,10.59,10.19,30.1,30.1,0,0,1,11-10.19,30.6,30.6,0,0,1,15-3.84,29,29,0,0,1,11.74,2.42,31.44,31.44,0,0,1,9.65,6.55,30.27,30.27,0,0,1,6.48,9.71A27.08,27.08,0,0,1,486.89,480V515.7a4.73,4.73,0,0,1-9.45,0V480a20.34,20.34,0,0,0-1.62-8.1,21.66,21.66,0,0,0-4.38-6.61,20.3,20.3,0,0,0-6.48-4.45,20.69,20.69,0,0,0-16,0,20.95,20.95,0,0,0-11,11.06,23,23,0,0,0-1.75,7.56V515.7a4.73,4.73,0,0,1-9.45,0V480a26.58,26.58,0,0,0-2.09-8.3,21.53,21.53,0,0,0-4.45-6.61,20.35,20.35,0,0,0-6.41-4.32,19.86,19.86,0,0,0-7.83-1.55,18.21,18.21,0,0,0-7.89,1.76,22.19,22.19,0,0,0-6.54,4.65,21.78,21.78,0,0,0-4.46,6.68,17.68,17.68,0,0,0-1.62,6.75V515.7a4.72,4.72,0,0,1-9.44,0Z" transform="translate(-105.05 -294.61)"/><path class="cls-2" d="M496.64,542.15V486.56a36.24,36.24,0,0,1,2.9-14.44,37.28,37.28,0,0,1,19.77-19.76,37.38,37.38,0,0,1,28.87,0,37.21,37.21,0,0,1,11.81,8,37.61,37.61,0,0,1,8,11.8A37.4,37.4,0,0,1,568,501a37.28,37.28,0,0,1-19.77,19.76,36.06,36.06,0,0,1-14.43,2.91A34.78,34.78,0,0,1,518,519.55q-8.1-4.11-11.87-8.84v31.85a4.73,4.73,0,0,1-9.45,0Zm9.45-55.59a27.2,27.2,0,0,0,2.15,10.73A27.6,27.6,0,0,0,523,512.06a27.71,27.71,0,0,0,21.45,0,27.6,27.6,0,0,0,14.78-14.77,27.71,27.71,0,0,0,0-21.45,27.66,27.66,0,0,0-14.78-14.78,27.71,27.71,0,0,0-21.45,0,27.66,27.66,0,0,0-14.78,14.78A27.15,27.15,0,0,0,506.09,486.56Z" transform="translate(-105.05 -294.61)"/><path class="cls-2" d="M579.27,430.7a4.72,4.72,0,0,1,9.44,0v85a4.72,4.72,0,0,1-9.44,0Z" transform="translate(-105.05 -294.61)"/><path class="cls-2" d="M624.56,542.56v-22.4a28.94,28.94,0,0,1-7-2.16,31.15,31.15,0,0,1-9.65-6.55,30.24,30.24,0,0,1-6.48-9.64,29.67,29.67,0,0,1-2.36-11.74V457.69a4.73,4.73,0,0,1,9.45,0v32.38a21.92,21.92,0,0,0,1.75,8.1,20.12,20.12,0,0,0,4.45,6.54,21.74,21.74,0,0,0,6.55,4.38,19.83,19.83,0,0,0,8,1.62,20.33,20.33,0,0,0,8.09-1.62,21.54,21.54,0,0,0,6.61-4.38,20,20,0,0,0,4.45-6.54,20.34,20.34,0,0,0,1.62-8.1V457.69a4.73,4.73,0,0,1,9.45,0v32.38a29.67,29.67,0,0,1-2.36,11.74,30.41,30.41,0,0,1-6.48,9.64A31.15,31.15,0,0,1,641,518a31.62,31.62,0,0,1-7,2.16v22.4a4.73,4.73,0,0,1-9.45,0Z" transform="translate(-105.05 -294.61)"/><path class="cls-3" d="M753,515.7v-4.31l-1.48,1.48a37.09,37.09,0,0,1-11.74,7.89,37.26,37.26,0,0,1-28.87,0A37.28,37.28,0,0,1,691.09,501a37.38,37.38,0,0,1,0-28.87,37.25,37.25,0,0,1,19.77-19.77,37.38,37.38,0,0,1,28.87,0,37.25,37.25,0,0,1,19.77,19.77,36.15,36.15,0,0,1,2.9,14.43V515.7a4.73,4.73,0,0,1-9.45,0Zm-55.32-29.14a27,27,0,0,0,2.16,10.73,27.6,27.6,0,0,0,14.78,14.77,27.71,27.71,0,0,0,21.45,0,27.72,27.72,0,0,0,14.77-14.7,29.15,29.15,0,0,0,2.16-9.59v-1.21a27,27,0,0,0-2.16-10.72A27.6,27.6,0,0,0,736,461.06a27.71,27.71,0,0,0-21.45,0,27.66,27.66,0,0,0-14.78,14.78A27,27,0,0,0,697.63,486.56Z" transform="translate(-105.05 -294.61)"/><path class="cls-3" d="M771.77,542.15V486.56a36.15,36.15,0,0,1,2.9-14.43,37.25,37.25,0,0,1,19.77-19.77,37.38,37.38,0,0,1,28.87,0,37.25,37.25,0,0,1,19.77,19.77,37.38,37.38,0,0,1,0,28.87,37.28,37.28,0,0,1-19.77,19.76,36,36,0,0,1-14.43,2.91,34.78,34.78,0,0,1-15.79-4.12q-8.1-4.11-11.87-8.84v31.85a4.73,4.73,0,0,1-9.45,0Zm9.45-55.59a27,27,0,0,0,2.16,10.73,27.65,27.65,0,0,0,5.93,8.84,28,28,0,0,0,8.84,5.93,27.71,27.71,0,0,0,21.45,0,27.6,27.6,0,0,0,14.78-14.77,27.71,27.71,0,0,0,0-21.45,27.66,27.66,0,0,0-14.78-14.78,27.71,27.71,0,0,0-21.45,0,27.84,27.84,0,0,0-8.84,5.94,27.54,27.54,0,0,0-5.93,8.84A27,27,0,0,0,781.22,486.56Z" transform="translate(-105.05 -294.61)"/><path class="cls-3" d="M853.35,542.15V486.56a36,36,0,0,1,2.9-14.43A37.28,37.28,0,0,1,876,452.36a37.4,37.4,0,0,1,28.88,0,37.34,37.34,0,0,1,19.77,19.77,37.38,37.38,0,0,1,0,28.87,37.37,37.37,0,0,1-19.77,19.76,36.07,36.07,0,0,1-14.44,2.91,34.71,34.71,0,0,1-15.78-4.12q-8.1-4.11-11.88-8.84v31.85a4.72,4.72,0,0,1-9.44,0Zm9.44-55.59A27,27,0,0,0,865,497.29a27.6,27.6,0,0,0,14.78,14.77,27.71,27.71,0,0,0,21.45,0A27.53,27.53,0,0,0,916,497.29a27.71,27.71,0,0,0,0-21.45,27.6,27.6,0,0,0-14.77-14.78,27.71,27.71,0,0,0-21.45,0A27.66,27.66,0,0,0,865,475.84,27,27,0,0,0,862.79,486.56Z" transform="translate(-105.05 -294.61)"/><path class="cls-3" d="M1001.6,483.73h-59c-.09,1-.14,1.93-.14,2.83a27,27,0,0,0,2.16,10.73,27.6,27.6,0,0,0,14.78,14.77,27.71,27.71,0,0,0,21.45,0,28,28,0,0,0,8.84-5.93,27.22,27.22,0,0,0,3-3.38,7.82,7.82,0,0,1,1.75-1.95,3.9,3.9,0,0,1,2.56-.88,4.85,4.85,0,0,1,4.73,4.72v.54q-.27,2.56-5.33,7.62a37.32,37.32,0,0,1-11.81,8,37.26,37.26,0,0,1-28.87,0A37.28,37.28,0,0,1,936,501a37.38,37.38,0,0,1,0-28.87,37.25,37.25,0,0,1,19.77-19.77,37.38,37.38,0,0,1,28.87,0,37.49,37.49,0,0,1,11.81,8,36.53,36.53,0,0,1,7.89,11.81,38.89,38.89,0,0,1,1.89,5.66q.67,3.24-.74,4.59A5.36,5.36,0,0,1,1001.6,483.73ZM989.73,467a27.84,27.84,0,0,0-8.84-5.94,27.71,27.71,0,0,0-21.45,0,27.92,27.92,0,0,0-14.1,13.22h49.52A29.75,29.75,0,0,0,989.73,467Z" transform="translate(-105.05 -294.61)"/><path class="cls-3" d="M1085.5,431.11v55.45a36.24,36.24,0,0,1-2.9,14.44,37.28,37.28,0,0,1-19.77,19.76,37.26,37.26,0,0,1-28.87,0A37.28,37.28,0,0,1,1014.19,501a37.38,37.38,0,0,1,0-28.87A37.25,37.25,0,0,1,1034,452.36a36,36,0,0,1,14.43-2.9,34.77,34.77,0,0,1,15.79,4.11q8.1,4.13,11.87,8.84V430.7a4.73,4.73,0,0,1,9.45,0Zm-9.45,55.45a27,27,0,0,0-2.16-10.72,27.6,27.6,0,0,0-14.77-14.78,27.71,27.71,0,0,0-21.45,0,27.66,27.66,0,0,0-14.78,14.78,27.71,27.71,0,0,0,0,21.45,27.6,27.6,0,0,0,14.78,14.77,27.71,27.71,0,0,0,21.45,0,27.53,27.53,0,0,0,14.77-14.77A27,27,0,0,0,1076.05,486.56Z" transform="translate(-105.05 -294.61)"/></svg>